<svg version="1.1" id="Layer_1" xmlns="http://www.w3.org/2000/svg" xmlns:xlink="http://www.w3.org/1999/xlink" x="0px" y="0px"
	 width="100%" viewBox="0 0 2816 1536" enable-background="new 0 0 2816 1536" xml:space="preserve">
<path fill="none" opacity="1.000000" stroke="#000000" stroke-linecap="round" stroke-linejoin="round" stroke-width="8.000000"
	d="
M1914.000000,865.000000 
	C1912.595825,862.467163 1912.733887,859.658020 1913.055420,857.006714 
	C1915.010742,840.880005 1910.881714,832.778503 1897.000000,826.000000 
	C1886.853394,821.045471 1873.766479,823.327332 1865.228149,833.197388 
	C1861.017334,838.065063 1857.525757,839.057556 1851.959106,837.117371 
	C1849.878418,836.392212 1847.333374,837.000000 1845.000000,837.000000 
	C1599.000000,837.000000 1353.000000,836.998779 1107.000000,837.008728 
	C1102.248169,837.008911 1097.386719,836.373962 1092.969727,839.234009 
	C1089.912231,836.427368 1086.932861,833.738525 1084.004028,830.995605 
	C1070.986694,818.804626 1054.370361,822.712646 1046.244873,832.209473 
	C1041.553345,837.692749 1037.299194,838.975159 1030.974731,837.084351 
	C1029.138916,836.535461 1027.000000,837.000000 1025.000000,837.000000 
	C757.666687,837.000000 490.333344,836.998718 223.000000,837.009644 
	C217.815430,837.009888 212.450623,836.253174 208.000000,840.000000 
"/>
<path fill="none" opacity="1.000000" stroke="#000000" stroke-linecap="round" stroke-linejoin="round" stroke-width="8.000000"
	d="
M2634.000000,838.000000 
	C2630.844971,835.882629 2627.312988,837.068298 2624.000000,837.067261 
	C2391.666748,836.993225 2159.333252,836.996765 1927.000000,837.024597 
	C1922.594360,837.025146 1917.992065,836.114746 1914.000000,839.000000 
"/>
<path fill="none" opacity="1.000000" stroke="#000000" stroke-linecap="round" stroke-linejoin="round" stroke-width="8.000000"
	d="
M495.000000,738.000000 
	C498.467773,706.704834 519.672241,692.403442 548.000549,692.974182 
	C556.330444,693.142090 564.671509,693.175293 572.998535,692.946533 
	C580.126221,692.750854 582.818237,696.244324 583.055481,702.998047 
	C583.638489,719.594421 573.537537,740.598145 548.993042,741.865601 
	C534.697876,742.603821 520.148438,743.433289 506.049683,741.614868 
	C490.571167,739.618469 475.334259,741.838745 459.993683,741.138245 
	C444.260071,740.419617 429.389069,726.880066 429.088898,710.998291 
	C428.717377,691.338684 427.829285,671.567139 429.489197,652.041565 
	C430.331207,642.137085 428.360779,632.693115 428.862579,622.992920 
	C429.410980,612.391479 423.887512,608.143921 413.008179,610.046753 
	C405.632050,611.336853 398.381256,611.224426 390.987274,610.082336 
	C382.672211,608.797974 375.853851,613.636841 369.069275,617.134399 
	C340.962860,631.623779 315.379791,649.948608 290.999725,669.999695 
	C255.527084,699.173706 225.299149,733.129700 197.811676,769.859070 
	C180.141235,793.470703 180.638229,811.633362 199.108307,832.905945 
	C203.954056,838.486938 207.596909,844.491028 211.241196,850.862061 
	C219.124420,864.643494 228.163239,877.781677 237.067551,890.954346 
	C241.955521,898.185364 248.637405,901.347595 258.003021,901.218201 
	C295.995758,900.693237 334.020233,900.292725 371.989166,901.378723 
	C385.511871,901.765564 394.562164,898.731750 405.507812,889.609314 
	C437.968933,862.554749 479.826385,866.203125 510.149475,894.841736 
	C520.608337,904.719543 526.463745,915.841431 527.000000,930.000000 
"/>
<path fill="none" opacity="1.000000" stroke="#000000" stroke-linecap="round" stroke-linejoin="round" stroke-width="8.000000"
	d="
M778.000000,904.000000 
	C774.171997,900.810242 769.592346,900.982971 765.000000,900.984314 
	C688.333313,901.006287 611.666687,901.006287 535.000000,900.984314 
	C530.407654,900.982971 525.828003,900.810242 522.000000,904.000000 
"/>
<path fill="none" opacity="1.000000" stroke="#000000" stroke-linecap="round" stroke-linejoin="round" stroke-width="8.000000"
	d="
M1599.000000,903.000000 
	C1595.185303,901.221375 1591.165039,900.955811 1587.000000,900.958862 
	C1509.666626,901.014954 1432.333374,901.014954 1355.000000,900.958801 
	C1350.834961,900.955811 1346.814697,901.221375 1343.000000,903.000000 
"/>
<path fill="none" opacity="1.000000" stroke="#000000" stroke-linecap="round" stroke-linejoin="round" stroke-width="8.000000"
	d="
M2420.000000,904.000000 
	C2416.172119,900.810242 2411.592285,900.983032 2407.000000,900.984314 
	C2330.333252,901.006348 2253.666748,901.000000 2177.000000,901.000000 
	C2175.000000,901.000000 2172.599365,900.273926 2171.066162,901.119995 
	C2162.370605,905.918518 2157.080811,900.768127 2152.017822,894.984314 
	C2141.578369,883.058289 2128.074951,876.293457 2112.973633,873.125305 
	C2085.476318,867.356689 2062.560791,876.331604 2041.803223,894.778564 
	C2025.109375,909.613892 2019.410645,929.327576 2019.671753,948.991089 
	C2020.216064,989.966309 2049.597412,1022.505737 2090.990479,1025.150513 
	C2124.062500,1027.263672 2147.920654,1013.431335 2165.023193,986.014465 
	C2168.488770,980.458862 2168.793701,974.127869 2170.000000,968.000000 
"/>
<path fill="none" opacity="1.000000" stroke="#000000" stroke-linecap="round" stroke-linejoin="round" stroke-width="8.000000"
	d="
M1587.000000,739.000000 
	C1589.000000,740.000000 1590.996460,741.860168 1593.000488,741.868469 
	C1616.002808,741.963379 1639.108032,743.275879 1661.967285,740.709106 
	C1676.868896,739.035889 1687.118286,725.757568 1687.031006,710.999817 
	C1686.908691,690.333862 1687.702393,669.635620 1686.789429,649.009338 
	C1685.981934,630.762695 1699.439453,611.882874 1722.984497,610.692566 
	C1735.072998,610.081421 1746.986816,611.483337 1759.003418,611.108643 
	C1773.655762,610.651794 1788.337158,611.205200 1802.998779,610.932251 
	C1813.857056,610.730103 1815.096313,612.147095 1815.073486,623.000183 
	C1814.928833,691.666565 1814.831421,760.334106 1815.156250,828.999268 
	C1815.214478,841.311340 1814.390625,853.607117 1816.231567,866.113098 
	C1817.110840,872.086060 1816.269409,880.173401 1814.010498,887.003479 
	C1811.054688,895.940552 1804.445557,900.937134 1794.999878,900.979614 
	C1778.666870,901.053040 1762.333374,901.000000 1746.000000,901.000000 
	C1743.666626,901.000000 1740.880249,900.164185 1739.076904,901.141846 
	C1730.347778,905.873962 1725.083008,900.766357 1720.019531,894.982971 
	C1712.098999,885.936584 1702.168823,879.978760 1690.990845,876.025757 
	C1660.599487,865.278015 1634.401245,873.188171 1610.960083,893.955017 
	C1600.031006,903.637207 1593.787231,915.393616 1593.000000,930.000000 
"/>
<path fill="none" opacity="1.000000" stroke="#000000" stroke-linecap="round" stroke-linejoin="round" stroke-width="8.000000"
	d="
M2098.000000,632.000000 
	C2088.459229,633.873413 2080.511475,639.844971 2071.060547,642.238708 
	C2065.305664,643.696350 2065.252197,650.175171 2065.134277,655.003296 
	C2064.767822,669.994324 2064.827393,685.002747 2065.068604,699.998901 
	C2065.201172,708.244934 2065.995361,716.913757 2070.239014,723.853882 
	C2077.251953,735.323425 2087.846924,742.120178 2102.000244,742.026611 
	C2111.717041,741.962402 2121.341797,740.649414 2131.008301,740.162720 
	C2138.965332,739.762146 2146.843018,741.627747 2155.008789,741.480164 
	C2165.973633,741.281921 2176.984619,742.398132 2188.003174,741.026062 
	C2210.354248,738.242920 2221.421875,725.388855 2221.052734,702.999146 
	C2220.783447,686.670288 2222.128906,670.236938 2220.745117,654.021729 
	C2218.454102,627.174988 2241.772217,610.388977 2264.002197,610.904480 
	C2283.658447,611.360291 2303.333252,610.973206 2323.000000,611.012329 
	C2331.666748,611.029541 2340.222412,609.749634 2349.034424,610.671936 
	C2356.366699,611.439392 2359.196045,613.493103 2359.114502,621.001221 
	C2358.822754,647.998108 2359.000000,675.000000 2359.000000,702.000000 
	C2359.000000,730.080078 2370.954834,741.961243 2398.993164,740.829163 
	C2405.706299,740.558105 2412.298340,740.571655 2419.006836,740.808228 
	C2436.991699,741.442688 2455.025146,740.495667 2472.999023,742.012878 
	C2497.029053,744.041443 2512.286621,724.619141 2511.214355,703.988892 
	C2510.212158,684.707642 2511.264648,665.328247 2510.894775,646.002014 
	C2510.692627,635.437927 2514.294189,626.920776 2522.015869,620.017700 
	C2528.816650,613.937927 2536.942383,611.744446 2545.980225,610.808105 
	C2558.060547,609.556580 2569.994629,611.309204 2582.001465,611.069641 
	C2596.662354,610.777100 2611.333496,610.953857 2626.000000,611.016174 
	C2635.885254,611.058105 2637.754639,612.949219 2637.980469,623.000427 
	C2638.092773,627.997925 2638.000000,633.000000 2638.000000,638.000000 
	C2638.000000,699.666687 2638.659180,761.344666 2637.596680,822.993042 
	C2637.280029,841.371399 2639.107666,859.645264 2638.125244,878.006714 
	C2637.318848,893.077026 2629.929932,900.988037 2615.000000,900.997742 
	C2599.333252,901.007874 2583.666748,901.000000 2568.000000,901.000000 
	C2565.333252,901.000000 2562.049805,899.992493 2560.110352,901.180115 
	C2552.958008,905.559570 2548.302734,901.770508 2544.041992,896.962891 
	C2531.974121,883.346802 2517.061279,875.894165 2499.039795,872.770203 
	C2474.695557,868.550171 2454.711914,876.808228 2435.970947,890.961609 
	C2422.895264,900.836487 2416.051025,914.020203 2414.000000,930.000000 
"/>
<path fill="none" opacity="1.000000" stroke="#000000" stroke-linecap="round" stroke-linejoin="round" stroke-width="8.000000"
	d="
M2069.000000,642.000000 
	C2063.403076,635.812134 2064.895752,628.202087 2065.096680,621.002686 
	C2065.281250,614.382263 2063.152100,611.976990 2056.071777,610.624451 
	C2044.310669,608.377808 2032.211548,609.718628 2021.042358,610.135071 
	C2004.749268,610.742432 1988.009033,617.514221 1975.991333,630.992249 
	C1964.776367,643.569702 1957.021851,657.637268 1957.012451,675.000000 
	C1956.980103,734.333313 1957.086060,793.666931 1956.913696,852.999756 
	C1956.885620,862.668213 1955.239990,872.190918 1956.763428,882.036621 
	C1958.603882,893.932007 1964.995850,900.911072 1977.000122,900.982544 
	C1989.999634,901.059875 2003.002197,901.139648 2015.998901,900.932373 
	C2021.304321,900.847717 2026.286987,901.565247 2031.000000,904.000000 
"/>
<path fill="none" opacity="1.000000" stroke="#000000" stroke-linecap="round" stroke-linejoin="round" stroke-width="8.000000"
	d="
M1684.000000,694.000000 
	C1664.333374,694.919128 1644.671509,691.076050 1624.998657,693.990906 
	C1604.238159,697.066772 1589.088135,712.942017 1587.036621,734.003540 
	C1586.758423,736.858582 1586.856934,738.818665 1583.072021,740.197693 
	C1566.792847,746.128906 1548.464478,739.244141 1539.794678,724.117676 
	C1537.444824,720.017700 1537.011597,716.234802 1537.008301,712.000000 
	C1536.990601,689.666687 1536.723022,667.328125 1537.143066,645.002686 
	C1537.300293,636.652771 1535.145874,628.406250 1536.861572,619.971863 
	C1537.843506,615.144104 1535.460449,610.524902 1530.028076,611.219238 
	C1521.588623,612.297791 1513.563599,609.572998 1504.945801,610.491699 
	C1492.161987,611.854492 1478.833862,609.915161 1466.027466,610.551758 
	C1446.963013,611.499390 1426.223145,606.296143 1409.829468,622.830994 
	C1395.941040,636.839050 1396.777710,653.881897 1397.266479,670.992371 
	C1397.391724,675.376404 1397.999146,679.606689 1397.069580,684.014648 
	C1395.800903,690.029602 1396.165527,695.745422 1397.648560,702.082214 
	C1402.293091,721.926514 1385.691895,740.864868 1365.000366,741.040344 
	C1352.664917,741.145020 1340.222900,742.022827 1328.016235,741.566711 
	C1309.323853,740.868225 1290.639160,741.942566 1272.007324,740.871582 
	C1256.236450,739.965027 1243.692749,724.572083 1243.155518,708.994629 
	C1242.501099,690.017212 1241.797241,670.894348 1243.453369,652.039795 
	C1244.438477,640.822449 1241.603882,630.013062 1242.945801,618.993408 
	C1243.465454,614.726257 1241.532227,612.027222 1237.014526,610.939880 
	C1224.107178,607.833374 1210.710205,609.696472 1198.013550,609.889954 
	C1170.437622,610.310242 1145.893555,634.627258 1138.809082,661.950500 
	C1137.491577,667.031921 1137.014038,671.923706 1137.012329,677.000000 
	C1136.993042,735.666687 1137.136719,794.333984 1136.859985,852.999329 
	C1136.815918,862.337341 1136.395142,871.643494 1136.890991,881.005798 
	C1137.536621,893.193665 1144.787842,900.886963 1157.000122,900.976929 
	C1170.666016,901.077576 1184.904175,898.588135 1197.845947,901.650818 
	C1211.933594,904.984619 1218.457764,897.918579 1227.155640,890.174805 
	C1256.180664,864.333374 1298.467163,865.326355 1329.087524,891.899170 
	C1340.930664,902.176880 1348.075806,914.310974 1349.000000,930.000000 
"/>
<path fill="none" opacity="1.000000" stroke="#000000" stroke-linecap="round" stroke-linejoin="round" stroke-width="8.000000"
	d="
M769.000000,739.000000 
	C772.405457,742.378113 776.730835,742.318237 780.997375,741.967896 
	C797.670532,740.598450 814.309509,741.285950 831.005615,741.826904 
	C855.691345,742.626770 869.829407,728.500061 868.708008,704.013367 
	C868.337769,695.928528 868.963867,688.000122 868.990662,679.999939 
	C869.027588,669.000122 869.000000,658.000000 869.000000,647.000000 
	C869.000000,625.429138 883.157593,611.548889 904.996094,610.873901 
	C914.352722,610.584717 923.648132,610.585693 933.004089,610.861877 
	C949.656250,611.353333 966.336487,611.197205 982.998901,610.929810 
	C993.856873,610.755493 995.094666,612.147217 995.073181,623.000122 
	C994.931458,694.666565 994.903137,766.333618 995.118347,837.999634 
	C995.146301,847.319580 996.522522,857.113708 995.996826,865.940247 
	C995.485901,874.519592 998.638855,884.935059 991.170410,893.154846 
	C986.546753,898.243652 982.001953,901.209839 974.998474,901.089539 
	C958.669983,900.808960 942.331970,901.118774 926.000793,900.931946 
	C920.697021,900.871338 915.713074,901.565247 911.000000,904.000000 
"/>
<path fill="none" opacity="1.000000" stroke="#000000" stroke-linecap="round" stroke-linejoin="round" stroke-width="8.000000"
	d="
M528.000000,931.000000 
	C531.664795,933.677795 535.904297,932.987305 540.000000,932.988220 
	C612.666687,933.004578 685.333313,933.000000 758.000000,933.000000 
	C774.333313,933.000000 790.666870,933.041260 806.999878,932.971313 
	C811.146606,932.953552 815.225525,932.980042 819.315247,935.356628 
	C827.448547,928.935547 835.032288,921.851257 847.018372,922.756958 
	C858.591309,923.631592 870.014038,933.788147 870.857544,949.007874 
	C871.554504,961.582520 859.175720,974.401733 847.000427,975.008057 
	C840.431763,975.335144 833.782349,975.455505 829.060913,969.947815 
	C824.322571,964.420410 819.345581,963.120483 811.927612,964.648438 
	C804.253174,966.229126 796.000000,965.000000 788.000000,965.000000 
	C705.666687,965.000000 623.333313,965.000000 541.000000,965.000000 
	C525.000000,965.000000 508.954987,965.724731 493.016479,964.734558 
	C483.082214,964.117432 475.147797,964.842529 466.695099,971.619690 
	C456.716980,979.619751 441.903229,974.844055 433.945709,965.044067 
	C427.412994,956.998718 426.855408,938.833496 435.862549,930.845032 
	C445.470917,922.323242 459.775330,919.541077 468.855743,927.171692 
	C475.356323,932.634399 481.320801,934.853088 490.053650,933.302185 
	C502.158264,931.152466 514.853577,935.124084 527.000000,931.000000 
"/>
<path fill="none" opacity="1.000000" stroke="#000000" stroke-linecap="round" stroke-linejoin="round" stroke-width="8.000000"
	d="
M772.000000,930.000000 
	C771.055115,902.783081 805.047729,878.770081 825.973145,873.885010 
	C854.771729,867.161743 878.646667,875.318481 900.102844,894.887207 
	C928.135925,920.453979 925.271790,970.001465 907.192322,994.144043 
	C874.039856,1038.414551 805.034729,1035.940186 776.963745,986.020386 
	C773.783386,980.364685 771.815857,974.514099 772.000000,968.000000 
"/>
<path fill="none" opacity="1.000000" stroke="#000000" stroke-linecap="round" stroke-linejoin="round" stroke-width="8.000000"
	d="
M1303.000000,935.000000 
	C1307.394409,932.427612 1312.247437,933.008972 1317.000000,933.008362 
	C1404.333374,932.997009 1491.666626,933.000000 1579.000000,933.000000 
	C1595.333374,933.000000 1611.708740,932.296997 1627.983765,933.270691 
	C1637.352295,933.831238 1644.630737,933.271240 1652.355835,926.400024 
	C1659.369629,920.161316 1674.893433,920.119385 1685.118042,931.897461 
	C1691.274292,938.988953 1694.174438,954.861267 1686.935303,963.948486 
	C1677.156128,976.224182 1661.452759,979.617920 1648.011230,968.985840 
	C1645.602905,967.080933 1643.340454,964.991760 1640.872070,962.868469 
	C1636.613281,965.626038 1631.751831,964.990356 1627.000000,964.991028 
	C1539.000000,965.003296 1451.000000,965.000000 1363.000000,965.000000 
	C1346.333374,965.000000 1329.666626,965.015869 1313.000000,964.987915 
	C1309.228027,964.981628 1305.311890,965.617676 1302.000000,963.000000 
"/>
<path fill="none" opacity="1.000000" stroke="#000000" stroke-linecap="round" stroke-linejoin="round" stroke-width="8.000000"
	d="
M2413.000000,967.000000 
	C2409.185303,965.221375 2405.165039,964.955444 2401.000000,964.958740 
	C2328.333252,965.015930 2255.666748,965.000000 2183.000000,965.000000 
	C2166.333252,965.000000 2149.578125,966.028320 2133.034180,964.603027 
	C2123.553223,963.786255 2116.791992,965.279724 2109.811768,971.798401 
	C2102.552246,978.577942 2085.642090,975.335327 2078.000000,966.999939 
	C2069.400635,957.620422 2069.060059,941.509827 2076.967285,931.972961 
	C2085.804199,921.315247 2104.092041,919.736938 2110.893555,927.098389 
	C2117.263672,933.992737 2124.417969,933.838806 2133.018799,933.302185 
	C2149.621094,932.266479 2166.333252,933.000000 2183.000000,933.000000 
	C2255.666748,933.000000 2328.334961,933.271301 2400.998535,932.785034 
	C2416.675049,932.680115 2432.335449,933.827271 2447.998535,932.974854 
	C2452.829834,932.711914 2457.469482,933.380432 2461.668701,935.236938 
	C2483.119141,919.894348 2496.429932,918.886719 2506.952393,932.038025 
	C2516.851318,944.410034 2514.279297,957.974548 2505.945557,966.949402 
	C2494.500488,979.274780 2481.099854,977.891846 2462.722412,962.771606 
	C2451.512207,966.796204 2439.671387,964.428406 2427.998291,964.962646 
	C2423.126953,965.185486 2418.128418,964.487671 2414.000000,968.000000 
"/>
<path fill="none" opacity="1.000000" stroke="#000000" stroke-linecap="round" stroke-linejoin="round" stroke-width="8.000000"
	d="
M1732.000000,905.000000 
	C1732.555786,914.008789 1737.736694,921.508606 1740.283569,929.914062 
	C1754.291016,976.142761 1712.965210,1027.001099 1666.983887,1025.488525 
	C1632.415894,1024.351440 1610.171265,1008.230957 1594.905029,979.049683 
	C1592.982178,975.374268 1593.088379,971.771790 1593.000000,968.000000 
"/>
<path fill="none" opacity="1.000000" stroke="#000000" stroke-linecap="round" stroke-linejoin="round" stroke-width="7.000000"
	d="
M698.000000,609.000000 
	C698.525146,582.002380 697.079468,554.992004 698.906555,527.993652 
	C699.747314,515.569519 694.274841,511.421082 681.052002,515.182678 
	C668.907410,518.637512 660.840759,526.076660 658.766663,539.965149 
	C655.327576,562.992798 649.767761,585.697266 648.000000,609.000000 
"/>
<path fill="none" opacity="1.000000" stroke="#000000" stroke-linecap="round" stroke-linejoin="round" stroke-width="8.000000"
	d="
M969.000000,608.000000 
	C969.000000,580.666687 968.815491,553.331421 969.098938,526.001038 
	C969.199402,516.304504 966.993103,514.916199 958.000610,514.872314 
	C943.933716,514.803772 933.137512,521.781433 930.236450,536.048096 
	C925.401367,559.825745 921.807434,583.868713 919.000000,608.000000 
"/>
<path fill="none" opacity="1.000000" stroke="#000000" stroke-linecap="round" stroke-linejoin="round" stroke-width="8.000000"
	d="
M1511.000000,608.000000 
	C1511.000000,577.496338 1511.000000,546.992737 1511.000000,516.860352 
	C1493.738892,510.640656 1474.230347,520.533936 1471.960815,540.995667 
	C1469.476562,563.394226 1462.899292,585.250183 1463.000000,608.000000 
"/>
<path fill="none" opacity="1.000000" stroke="#000000" stroke-linecap="round" stroke-linejoin="round" stroke-width="8.000000"
	d="
M2337.000000,608.000000 
	C2337.000000,582.000000 2337.000000,556.000000 2337.000000,530.000000 
	C2337.000000,514.857361 2332.985596,511.953644 2317.993652,515.976440 
	C2307.819580,518.706421 2300.051270,524.605591 2298.183838,535.032898 
	C2293.846436,559.248840 2288.352539,583.317932 2287.000000,608.000000 
"/>
<path fill="none" opacity="1.000000" stroke="#000000" stroke-linecap="round" stroke-linejoin="round" stroke-width="8.000000"
	d="
M2609.000000,608.000000 
	C2609.000000,580.666687 2608.815674,553.331421 2609.098877,526.001038 
	C2609.199463,516.304565 2607.001709,514.780212 2597.998779,514.907104 
	C2582.502686,515.125549 2573.295898,522.386597 2570.012939,538.002747 
	C2565.148193,561.145142 2562.263672,584.603333 2559.000000,608.000000 
"/>
<path fill="none" opacity="1.000000" stroke="#000000" stroke-linecap="round" stroke-linejoin="round" stroke-width="8.000000"
	d="
M1785.000000,608.000000 
	C1785.000000,580.666687 1784.814941,553.331360 1785.098877,526.001038 
	C1785.200195,516.250854 1782.953491,514.911133 1774.000366,514.884399 
	C1757.155762,514.834045 1747.080200,526.233521 1745.393921,539.051819 
	C1742.359863,562.113831 1736.967651,584.802063 1735.000000,608.000000 
"/>
<path fill="none" opacity="1.000000" stroke="#000000" stroke-linecap="round" stroke-linejoin="round" stroke-width="7.000000"
	d="
M415.000000,608.000000 
	C415.088409,604.228210 415.313599,600.691956 416.845856,596.937073 
	C425.498230,575.733948 433.725281,554.355957 441.968567,532.987854 
	C444.893372,525.406250 441.986633,517.183472 434.947662,515.184204 
	C428.200470,513.267700 422.699860,516.247742 420.031555,523.012451 
	C414.262421,537.638733 409.008392,552.477905 402.884644,566.951172 
	C398.517578,577.272583 395.476654,588.133301 390.060150,598.032898 
	C388.403595,601.060608 389.033020,604.636658 389.000000,608.000000 
"/>
<path fill="none" opacity="1.000000" stroke="#000000" stroke-linecap="round" stroke-linejoin="round" stroke-width="7.000000"
	d="
M2047.000000,608.000000 
	C2048.555420,594.382996 2055.686768,582.671448 2060.092773,570.032349 
	C2064.675293,556.886780 2070.473877,544.153564 2074.761963,530.922791 
	C2076.427979,525.781799 2075.161377,520.170471 2069.068359,516.873657 
	C2064.716553,514.518921 2061.256836,514.458191 2056.923828,516.862549 
	C2053.032227,519.021790 2051.327881,522.863403 2050.233887,526.079590 
	C2041.731567,551.076843 2032.017822,575.590881 2022.086304,600.035034 
	C2021.109009,602.440125 2021.333252,605.333313 2021.000000,608.000000 
"/>
<path fill="none" opacity="1.000000" stroke="#000000" stroke-linecap="round" stroke-linejoin="round" stroke-width="7.000000"
	d="
M1225.000000,608.000000 
	C1227.217896,593.497131 1234.479248,580.717529 1239.111206,567.037659 
	C1242.898438,555.852783 1247.843628,545.064941 1251.914917,533.968811 
	C1253.597656,529.382996 1254.306030,524.358826 1250.970215,520.022888 
	C1244.854492,512.073486 1234.230835,513.151611 1230.170410,523.069763 
	C1219.336670,549.531616 1209.306885,576.323181 1199.071899,603.027527 
	C1198.514893,604.480774 1199.000000,606.333313 1199.000000,608.000000 
"/>
<path fill="none" opacity="1.000000" stroke="#000000" stroke-linecap="round" stroke-linejoin="round" stroke-width="8.000000"
	d="
M580.000000,694.000000 
	C582.785400,690.446350 583.092346,686.322144 583.038025,681.999512 
	C582.916443,672.334351 584.047180,662.528137 582.790283,653.027771 
	C579.825806,630.619934 600.195496,611.178650 624.000244,611.038574 
	C651.999268,610.873840 680.003784,611.255920 707.997742,610.845154 
	C716.470215,610.720886 719.272705,613.530334 719.154785,622.002136 
	C718.751160,650.996521 718.990417,680.000000 719.003418,709.000000 
	C719.012146,728.495789 731.504272,740.973999 751.000000,740.999512 
	C753.666687,741.002991 756.337463,740.903992 758.999146,741.019226 
	C765.335449,741.293457 768.689575,739.837097 769.271545,732.020203 
	C770.914062,709.959656 791.963379,693.504639 818.000916,693.051514 
	C833.996033,692.773193 850.000000,693.000000 866.000000,693.000000 
"/>
<path fill="none" opacity="1.000000" stroke="#000000" stroke-linecap="round" stroke-linejoin="round" stroke-width="8.000000"
	d="
M1210.000000,905.000000 
	C1210.604126,910.756897 1206.888184,915.139282 1204.879028,919.949463 
	C1186.578613,963.761841 1212.830322,1015.280151 1261.120361,1024.359741 
	C1299.358765,1031.549438 1331.173584,1015.156860 1348.116577,976.050537 
	C1349.342407,973.221008 1348.463623,970.641296 1349.000000,968.000000 
"/>
<path fill="none" opacity="1.000000" stroke="#000000" stroke-linecap="round" stroke-linejoin="round" stroke-width="8.000000"
	d="
M2554.000000,905.000000 
	C2553.942871,908.650513 2555.249268,911.715637 2556.846191,915.073181 
	C2574.705078,952.625977 2560.837158,992.251648 2530.014893,1013.022278 
	C2491.868408,1038.728638 2434.523438,1024.432129 2415.841797,978.063721 
	C2414.596436,974.972839 2416.374512,971.620483 2414.000000,969.000000 
"/>
<path fill="none" opacity="1.000000" stroke="#000000" stroke-linecap="round" stroke-linejoin="round" stroke-width="7.000000"
	d="
M388.000000,905.000000 
	C387.361969,914.787292 380.831329,922.475952 378.771942,931.950439 
	C373.601868,955.736450 378.526581,977.090149 393.106903,995.917236 
	C421.198639,1032.191284 475.340149,1035.537109 506.918640,1004.916077 
	C517.303406,994.846252 526.479004,983.655334 527.000000,968.000000 
"/>
<path fill="none" opacity="1.000000" stroke="#000000" stroke-linecap="round" stroke-linejoin="round" stroke-width="8.000000"
	d="
M1302.000000,936.000000 
	C1294.057739,929.469788 1287.001709,921.681458 1274.984985,922.845032 
	C1265.538208,923.759827 1255.368286,930.615967 1252.000000,940.000000 
	C1248.313721,950.269958 1252.749146,964.019714 1262.000000,971.000061 
	C1269.197876,976.431213 1283.169678,976.055298 1291.052979,971.084045 
	C1304.429443,962.648804 1303.889893,950.131042 1302.000000,937.000000 
"/>
<path fill="none" opacity="1.000000" stroke="#000000" stroke-linecap="round" stroke-linejoin="round" stroke-width="8.000000"
	d="
M2508.000000,693.000000 
	C2488.670654,693.567261 2469.338135,692.245239 2449.989990,693.883118 
	C2428.706787,695.684875 2408.802490,714.520020 2409.000000,738.000000 
"/>
<path fill="none" opacity="1.000000" stroke="#000000" stroke-linecap="round" stroke-linejoin="round" stroke-width="8.000000"
	d="
M2218.000000,693.000000 
	C2206.666748,693.000000 2195.332520,693.076538 2184.000244,692.984436 
	C2158.489014,692.777039 2135.476562,706.237854 2134.000000,738.000000 
"/>
<path fill="none" opacity="1.000000" stroke="#000000" stroke-linecap="round" stroke-linejoin="round" stroke-width="8.000000"
	d="
M1394.000000,693.000000 
	C1378.675659,693.872620 1363.345337,691.791687 1347.961914,694.805664 
	C1326.605469,698.989929 1311.682495,715.622192 1311.000000,738.000000 
"/>
<path fill="none" opacity="1.000000" stroke="#000000" stroke-linecap="round" stroke-linejoin="round" stroke-width="8.000000"
	d="
M1038.000000,840.000000 
	C1040.665771,844.249939 1037.170776,847.992065 1037.022705,852.000854 
	C1036.565308,864.393311 1042.897827,873.838501 1053.187378,878.594604 
	C1062.832153,883.052734 1073.772949,883.528442 1083.120483,875.134155 
	C1086.327026,872.254578 1089.465820,869.465881 1092.351807,865.910767 
	C1105.960938,867.975281 1120.001099,866.619751 1134.000000,867.000000 
"/>
<path fill="none" opacity="1.000000" stroke="#000000" stroke-linecap="round" stroke-linejoin="round" stroke-width="8.000000"
	d="
M1858.000000,840.000000 
	C1861.282837,844.924988 1856.458862,849.119080 1856.784546,854.014343 
	C1857.614746,866.492798 1863.989502,874.486877 1875.033691,878.916077 
	C1886.090576,883.350342 1896.404297,882.232422 1905.020386,873.018982 
	C1909.878174,867.824402 1915.124390,865.208252 1923.056274,866.700989 
	C1932.812256,868.537048 1943.062378,865.796570 1953.000000,868.000000 
"/>
<path fill="none" opacity="1.000000" stroke="#000000" stroke-linecap="round" stroke-linejoin="round" stroke-width="8.000000"
	d="
M463.500000,583.000000 
	C466.921722,597.231384 464.230621,611.676086 464.730194,626.009399 
	C464.783112,627.527100 464.712189,631.621460 460.999268,631.992737 
	C450.833099,633.009338 443.168304,641.004578 433.000000,642.000000 
"/>
<path fill="none" opacity="1.000000" stroke="#000000" stroke-linecap="round" stroke-linejoin="round" stroke-width="8.000000"
	d="
M1280.000000,584.000000 
	C1277.707153,595.945557 1279.479126,608.002991 1279.055298,620.001953 
	C1278.810425,626.934448 1278.587158,632.153320 1269.065552,633.473083 
	C1261.567139,634.512451 1255.119507,640.921875 1247.000000,642.000000 
"/>
<path fill="none" opacity="1.000000" stroke="#000000" stroke-linecap="round" stroke-linejoin="round" stroke-width="7.000000"
	d="
M2102.000000,584.000000 
	C2102.936768,599.028198 2104.962402,614.327576 2100.507568,628.848938 
	C2099.039551,633.634094 2101.862549,635.635925 2102.047607,638.997375 
	C2102.561279,648.338196 2103.938477,657.666687 2102.000000,667.000000 
"/>
<path fill="none" opacity="1.000000" stroke="#000000" stroke-linecap="round" stroke-linejoin="round" stroke-width="8.000000"
	d="
M463.000000,633.000000 
	C467.084198,646.910706 464.517273,660.979736 464.000000,675.000000 
"/>
<path fill="none" opacity="1.000000" stroke="#000000" stroke-linecap="round" stroke-linejoin="round" stroke-width="8.000000"
	d="
M1277.000000,633.000000 
	C1279.730957,638.423828 1278.941650,644.264954 1278.993042,650.000061 
	C1279.067749,658.344543 1278.693237,666.705627 1280.000000,675.000000 
"/>
<path fill="none" opacity="1.000000" stroke="#000000" stroke-linecap="round" stroke-linejoin="round" stroke-width="8.000000"
	d="
M1858.000000,866.000000 
	C1844.709351,868.041016 1831.330078,866.537415 1818.000000,867.000000 
"/>
<path fill="none" opacity="1.000000" stroke="#000000" stroke-linecap="round" stroke-linejoin="round" stroke-width="8.000000"
	d="
M1037.000000,866.000000 
	C1024.045532,868.110840 1010.995300,866.483276 998.000000,867.000000 
"/>
</svg>